<svg version="1.1"  xmlns="http://www.w3.org/2000/svg">
  <symbol id="icon-test" width="79" height="53" viewBox="0 0 79 53">
  </symbol>
  <symbol id="icon-arrow-projects" width="65" height="15" viewBox="0 0 65 15">
    <rect y="6.07129" width="62" height="2" fill="black"/>
    <rect x="57" width="10" height="2" transform="rotate(45 57 0)" fill="black"/>
    <rect x="64.0713" y="7.07129" width="10" height="2" transform="rotate(135 64.0713 7.07129)" fill="black"/>
  </symbol>
  <symbol id="icon-close-cookie" width="10" height="10" viewBox="0 0 10 10">
    <path fill-rule="evenodd" clip-rule="evenodd" d="M1.06067 0L0 1.06067L3.7124 4.77313L0.00012207 8.48541L1.06067 9.54608L4.77307 5.83374L8.48523 9.54596L9.5459 8.48529L5.83374 4.77307L9.54602 1.06079L8.48535 0.00012207L4.77307 3.7124L1.06067 0Z" fill="white"/>
  </symbol>
  <symbol id="icon-arrow-slider" width="9" height="15" viewBox="0 0 9 15">
    <g id="Group 2317">
    <rect id="Rectangle 1301" x="1.92969" width="10" height="2" transform="rotate(45 1.92969 0)" fill="white"/>
    <rect id="Rectangle 1302" x="9" y="7.07129" width="10" height="2" transform="rotate(135 9 7.07129)" fill="white"/>
    </g>
  </symbol>
  <symbol id="icon-arrow-dropdown" width="10" height="6" viewBox="0 0 10 6">
    <rect x="10" y="1" width="7.07096" height="1.41419" transform="rotate(135 10 1)" fill="black"/>
    <rect x="5" y="6" width="7.07096" height="1.41419" transform="rotate(-135 5 6)" fill="black"/>
  </symbol>
  <symbol id="icon-arrow-up" width="15" height="9" viewBox="0 0 15 9">
      <g id="Group 2317">
    <rect id="Rectangle 1301" y="7.07129" width="10" height="2" transform="rotate(-45 0 7.07129)" fill="black"/>
    <rect id="Rectangle 1302" x="7.07031" width="10" height="2" transform="rotate(45 7.07031 0)" fill="black"/>
    </g>
  </symbol>
   <symbol id="icon-wp" width="25" height="26" viewBox="0 0 25 26">
      <path fill-rule="evenodd" clip-rule="evenodd" d="M12.7861 24.9138H12.7811C10.7368 24.9131 8.72804 24.4001 6.94395 23.427L0.46875 25.1256L2.20162 18.7961C1.1327 16.9436 0.570242 14.8423 0.571159 12.6895C0.573838 5.95481 6.05336 0.475586 12.786 0.475586C16.0536 0.476996 19.1204 1.74905 21.4266 4.05789C23.7327 6.36661 25.0021 9.43546 25.0008 12.6992C24.9981 19.4324 19.5207 24.911 12.7861 24.9138ZM7.24329 21.2161L7.61402 21.4361C9.17277 22.3611 10.9596 22.8506 12.7813 22.8513H12.7854C18.3811 22.8513 22.9355 18.2968 22.9377 12.6988C22.9388 9.98608 21.8838 7.43538 19.967 5.51636C18.0502 3.59735 15.5011 2.54 12.7894 2.53906C7.18942 2.53906 2.63503 7.09304 2.63281 12.6906C2.63203 14.6089 3.16877 16.4772 4.18504 18.0936L4.42643 18.4777L3.40082 22.2241L7.24329 21.2161ZM18.5204 15.3291C18.7333 15.432 18.8771 15.5014 18.9384 15.6039C19.0147 15.7312 19.0147 16.3422 18.7605 17.0553C18.5061 17.7682 17.2868 18.4188 16.7004 18.5064C16.1746 18.5851 15.5091 18.6178 14.778 18.3855C14.3348 18.2449 13.7663 18.0571 13.0381 17.7426C10.1769 16.5071 8.24329 13.734 7.87785 13.2099C7.85225 13.1731 7.83434 13.1475 7.82435 13.1341L7.82189 13.1308C7.66037 12.9153 6.57812 11.4713 6.57812 9.97689C6.57812 8.57104 7.2687 7.83416 7.58657 7.49498C7.60835 7.47174 7.62838 7.45037 7.64632 7.43077C7.92607 7.12522 8.25674 7.04883 8.46019 7.04883C8.66363 7.04883 8.86732 7.05071 9.04515 7.05964C9.06709 7.06074 9.08991 7.06061 9.11351 7.06047C9.29136 7.05943 9.5131 7.05813 9.73184 7.58355C9.81599 7.78574 9.93911 8.08549 10.069 8.40163C10.3316 9.04102 10.6218 9.7475 10.6728 9.84973C10.7492 10.0025 10.8 10.1807 10.6983 10.3845C10.683 10.415 10.6689 10.4438 10.6554 10.4714C10.579 10.6274 10.5228 10.7421 10.3931 10.8936C10.3421 10.9531 10.2894 11.0173 10.2367 11.0815C10.1317 11.2093 10.0267 11.3372 9.93527 11.4283C9.78248 11.5805 9.62343 11.7456 9.80146 12.0512C9.97949 12.3567 10.592 13.3561 11.4993 14.1654C12.4747 15.0354 13.3223 15.4031 13.752 15.5894C13.8359 15.6258 13.9039 15.6553 13.9537 15.6803C14.2588 15.8331 14.4369 15.8075 14.6149 15.6039C14.793 15.4002 15.3779 14.7127 15.5813 14.4072C15.7847 14.1017 15.9883 14.1526 16.268 14.2544C16.5478 14.3564 18.0483 15.0946 18.3535 15.2474C18.4131 15.2772 18.4688 15.3041 18.5204 15.3291Z" fill="black"/>
  </symbol>
  <symbol id="icon-insta" width="23" height="23" viewBox="0 0 23 23">
      <path fill-rule="evenodd" clip-rule="evenodd" d="M11.5011 0C8.37784 0 7.98587 0.0136564 6.7592 0.0694799C5.53491 0.125543 4.69924 0.319368 3.96802 0.603756C3.21165 0.897489 2.57004 1.29041 1.93082 1.92986C1.29113 2.56908 0.898207 3.21069 0.603517 3.96682C0.31841 4.69828 0.124345 5.53419 0.0692403 6.758C0.0143751 7.98468 0 8.37688 0 11.5001C0 14.6234 0.013896 15.0141 0.0694799 16.2408C0.125783 17.4651 0.319607 18.3008 0.603756 19.032C0.897728 19.7884 1.29065 20.43 1.9301 21.0692C2.56908 21.7089 3.21069 22.1028 3.96658 22.3965C4.69828 22.6809 5.53419 22.8747 6.75824 22.9308C7.98492 22.9866 8.37664 23.0002 11.4996 23.0002C14.6231 23.0002 15.0139 22.9866 16.2406 22.9308C17.4648 22.8747 18.3015 22.6809 19.0332 22.3965C19.7893 22.1028 20.43 21.7089 21.0689 21.0692C21.7086 20.43 22.1016 19.7884 22.3962 19.0322C22.679 18.3008 22.873 17.4648 22.9305 16.241C22.9856 15.0144 23 14.6234 23 11.5001C23 8.37688 22.9856 7.98492 22.9305 6.75824C22.873 5.53395 22.679 4.69828 22.3962 3.96706C22.1016 3.21069 21.7086 2.56908 21.0689 1.92986C20.4292 1.29017 19.7896 0.897249 19.0325 0.603756C18.2993 0.319368 17.4632 0.125543 16.2389 0.0694799C15.0122 0.0136564 14.6217 0 11.4975 0H11.5011ZM11.1186 2.0721H11.1186L11.5019 2.07221C14.5725 2.07221 14.9364 2.08323 16.1489 2.13834C17.2702 2.18961 17.8787 2.37696 18.2841 2.53437C18.8208 2.74281 19.2034 2.99198 19.6057 3.39449C20.0082 3.79699 20.2573 4.18033 20.4663 4.717C20.6237 5.1219 20.8113 5.73045 20.8623 6.85171C20.9174 8.06401 20.9294 8.42818 20.9294 11.4973C20.9294 14.5664 20.9174 14.9305 20.8623 16.1428C20.811 17.2641 20.6237 17.8727 20.4663 18.2776C20.2578 18.8142 20.0082 19.1964 19.6057 19.5986C19.2032 20.0011 18.821 20.2503 18.2841 20.4587C17.8792 20.6169 17.2702 20.8038 16.1489 20.855C14.9366 20.9101 14.5725 20.9221 11.5019 20.9221C8.43115 20.9221 8.06722 20.9101 6.85491 20.855C5.73365 20.8033 5.1251 20.6159 4.71949 20.4585C4.18281 20.2501 3.79948 20.0009 3.39697 19.5984C2.99447 19.1959 2.7453 18.8135 2.53638 18.2766C2.37897 17.8717 2.19138 17.2632 2.14034 16.1419C2.08524 14.9296 2.07422 14.5654 2.07422 11.4944C2.07422 8.42339 2.08524 8.06114 2.14034 6.84883C2.19162 5.72757 2.37897 5.11902 2.53638 4.71364C2.74482 4.17697 2.99447 3.79364 3.39697 3.39113C3.79948 2.98863 4.18281 2.73946 4.71949 2.53054C5.12487 2.37241 5.73365 2.18554 6.85491 2.13402C7.9158 2.08611 8.32693 2.07173 10.4703 2.06934V2.07221C10.6705 2.0719 10.886 2.07199 11.1185 2.0721H11.1185H11.1186ZM16.2578 5.36244C16.2578 4.60031 16.8759 3.9829 17.6378 3.9829V3.98242C18.3997 3.98242 19.0178 4.60055 19.0178 5.36244C19.0178 6.12432 18.3997 6.74245 17.6378 6.74245C16.8759 6.74245 16.2578 6.12432 16.2578 5.36244ZM11.4993 5.59375C8.23793 5.59388 5.59375 8.23814 5.59375 11.4995C5.59375 14.761 8.23806 17.4041 11.4995 17.4041C14.761 17.4041 17.4044 14.761 17.4044 11.4995C17.4044 8.23806 14.7608 5.59375 11.4993 5.59375ZM15.3347 11.5004C15.3347 9.38315 13.6183 7.66699 11.5013 7.66699C9.38412 7.66699 7.66797 9.38315 7.66797 11.5004C7.66797 13.6173 9.38412 15.3337 11.5013 15.3337C13.6183 15.3337 15.3347 13.6173 15.3347 11.5004Z" fill="black"/>
  </symbol>
</svg>
