<svg width="23" height="23" viewBox="0 0 23 23" fill="none" xmlns="http://www.w3.org/2000/svg">
<path fill-rule="evenodd" clip-rule="evenodd" d="M11.5011 0C8.37784 0 7.98587 0.0136564 6.7592 0.0694799C5.53491 0.125543 4.69924 0.319368 3.96802 0.603756C3.21165 0.897489 2.57004 1.29041 1.93082 1.92986C1.29113 2.56908 0.898207 3.21069 0.603517 3.96682C0.31841 4.69828 0.124345 5.53419 0.0692403 6.758C0.0143751 7.98468 0 8.37688 0 11.5001C0 14.6234 0.013896 15.0141 0.0694799 16.2408C0.125783 17.4651 0.319607 18.3008 0.603756 19.032C0.897728 19.7884 1.29065 20.43 1.9301 21.0692C2.56908 21.7089 3.21069 22.1028 3.96658 22.3965C4.69828 22.6809 5.53419 22.8747 6.75824 22.9308C7.98492 22.9866 8.37664 23.0002 11.4996 23.0002C14.6231 23.0002 15.0139 22.9866 16.2406 22.9308C17.4648 22.8747 18.3015 22.6809 19.0332 22.3965C19.7893 22.1028 20.43 21.7089 21.0689 21.0692C21.7086 20.43 22.1016 19.7884 22.3962 19.0322C22.679 18.3008 22.873 17.4648 22.9305 16.241C22.9856 15.0144 23 14.6234 23 11.5001C23 8.37688 22.9856 7.98492 22.9305 6.75824C22.873 5.53395 22.679 4.69828 22.3962 3.96706C22.1016 3.21069 21.7086 2.56908 21.0689 1.92986C20.4292 1.29017 19.7896 0.897249 19.0325 0.603756C18.2993 0.319368 17.4632 0.125543 16.2389 0.0694799C15.0122 0.0136564 14.6217 0 11.4975 0H11.5011ZM11.1186 2.0721H11.1186L11.5019 2.07221C14.5725 2.07221 14.9364 2.08323 16.1489 2.13834C17.2702 2.18961 17.8787 2.37696 18.2841 2.53437C18.8208 2.74281 19.2034 2.99198 19.6057 3.39449C20.0082 3.79699 20.2573 4.18033 20.4663 4.717C20.6237 5.1219 20.8113 5.73045 20.8623 6.85171C20.9174 8.06401 20.9294 8.42818 20.9294 11.4973C20.9294 14.5664 20.9174 14.9305 20.8623 16.1428C20.811 17.2641 20.6237 17.8727 20.4663 18.2776C20.2578 18.8142 20.0082 19.1964 19.6057 19.5986C19.2032 20.0011 18.821 20.2503 18.2841 20.4587C17.8792 20.6169 17.2702 20.8038 16.1489 20.855C14.9366 20.9101 14.5725 20.9221 11.5019 20.9221C8.43115 20.9221 8.06722 20.9101 6.85491 20.855C5.73365 20.8033 5.1251 20.6159 4.71949 20.4585C4.18281 20.2501 3.79948 20.0009 3.39697 19.5984C2.99447 19.1959 2.7453 18.8135 2.53638 18.2766C2.37897 17.8717 2.19138 17.2632 2.14034 16.1419C2.08524 14.9296 2.07422 14.5654 2.07422 11.4944C2.07422 8.42339 2.08524 8.06114 2.14034 6.84883C2.19162 5.72757 2.37897 5.11902 2.53638 4.71364C2.74482 4.17697 2.99447 3.79364 3.39697 3.39113C3.79948 2.98863 4.18281 2.73946 4.71949 2.53054C5.12487 2.37241 5.73365 2.18554 6.85491 2.13402C7.9158 2.08611 8.32693 2.07173 10.4703 2.06934V2.07221C10.6705 2.0719 10.886 2.07199 11.1185 2.0721H11.1185H11.1186ZM16.2578 5.36244C16.2578 4.60031 16.8759 3.9829 17.6378 3.9829V3.98242C18.3997 3.98242 19.0178 4.60055 19.0178 5.36244C19.0178 6.12432 18.3997 6.74245 17.6378 6.74245C16.8759 6.74245 16.2578 6.12432 16.2578 5.36244ZM11.4993 5.59375C8.23793 5.59388 5.59375 8.23814 5.59375 11.4995C5.59375 14.761 8.23806 17.4041 11.4995 17.4041C14.761 17.4041 17.4044 14.761 17.4044 11.4995C17.4044 8.23806 14.7608 5.59375 11.4993 5.59375ZM15.3347 11.5004C15.3347 9.38315 13.6183 7.66699 11.5013 7.66699C9.38412 7.66699 7.66797 9.38315 7.66797 11.5004C7.66797 13.6173 9.38412 15.3337 11.5013 15.3337C13.6183 15.3337 15.3347 13.6173 15.3347 11.5004Z" fill="black"/>
</svg>
