<svg width="25" height="26" viewBox="0 0 25 26" fill="none" xmlns="http://www.w3.org/2000/svg">
<path fill-rule="evenodd" clip-rule="evenodd" d="M12.7861 24.9138H12.7811C10.7368 24.9131 8.72804 24.4001 6.94395 23.427L0.46875 25.1256L2.20162 18.7961C1.1327 16.9436 0.570242 14.8423 0.571159 12.6895C0.573838 5.95481 6.05336 0.475586 12.786 0.475586C16.0536 0.476996 19.1204 1.74905 21.4266 4.05789C23.7327 6.36661 25.0021 9.43546 25.0008 12.6992C24.9981 19.4324 19.5207 24.911 12.7861 24.9138ZM7.24329 21.2161L7.61402 21.4361C9.17277 22.3611 10.9596 22.8506 12.7813 22.8513H12.7854C18.3811 22.8513 22.9355 18.2968 22.9377 12.6988C22.9388 9.98608 21.8838 7.43538 19.967 5.51636C18.0502 3.59735 15.5011 2.54 12.7894 2.53906C7.18942 2.53906 2.63503 7.09304 2.63281 12.6906C2.63203 14.6089 3.16877 16.4772 4.18504 18.0936L4.42643 18.4777L3.40082 22.2241L7.24329 21.2161ZM18.5204 15.3291C18.7333 15.432 18.8771 15.5014 18.9384 15.6039C19.0147 15.7312 19.0147 16.3422 18.7605 17.0553C18.5061 17.7682 17.2868 18.4188 16.7004 18.5064C16.1746 18.5851 15.5091 18.6178 14.778 18.3855C14.3348 18.2449 13.7663 18.0571 13.0381 17.7426C10.1769 16.5071 8.24329 13.734 7.87785 13.2099C7.85225 13.1731 7.83434 13.1475 7.82435 13.1341L7.82189 13.1308C7.66037 12.9153 6.57812 11.4713 6.57812 9.97689C6.57812 8.57104 7.2687 7.83416 7.58657 7.49498C7.60835 7.47174 7.62838 7.45037 7.64632 7.43077C7.92607 7.12522 8.25674 7.04883 8.46019 7.04883C8.66363 7.04883 8.86732 7.05071 9.04515 7.05964C9.06709 7.06074 9.08991 7.06061 9.11351 7.06047C9.29136 7.05943 9.5131 7.05813 9.73184 7.58355C9.81599 7.78574 9.93911 8.08549 10.069 8.40163C10.3316 9.04102 10.6218 9.7475 10.6728 9.84973C10.7492 10.0025 10.8 10.1807 10.6983 10.3845C10.683 10.415 10.6689 10.4438 10.6554 10.4714C10.579 10.6274 10.5228 10.7421 10.3931 10.8936C10.3421 10.9531 10.2894 11.0173 10.2367 11.0815C10.1317 11.2093 10.0267 11.3372 9.93527 11.4283C9.78248 11.5805 9.62343 11.7456 9.80146 12.0512C9.97949 12.3567 10.592 13.3561 11.4993 14.1654C12.4747 15.0354 13.3223 15.4031 13.752 15.5894C13.8359 15.6258 13.9039 15.6553 13.9537 15.6803C14.2588 15.8331 14.4369 15.8075 14.6149 15.6039C14.793 15.4002 15.3779 14.7127 15.5813 14.4072C15.7847 14.1017 15.9883 14.1526 16.268 14.2544C16.5478 14.3564 18.0483 15.0946 18.3535 15.2474C18.4131 15.2772 18.4688 15.3041 18.5204 15.3291Z" fill="black"/>
</svg>
